<svg width="1156" height="676" xmlns="http://www.w3.org/2000/svg" xmlns:xlink="http://www.w3.org/1999/xlink" overflow="hidden"><defs><clipPath id="clip0"><rect x="91" y="14" width="1156" height="676"/></clipPath></defs><g clip-path="url(#clip0)" transform="translate(-91 -14)"><rect x="310.5" y="487.5" width="263" height="200" stroke="#41719C" stroke-width="1.33333" stroke-miterlimit="8" fill="#002060"/><text fill="#FFFFFF" font-family="Calibri,Calibri_MSFontService,sans-serif" font-weight="400" font-size="19" transform="translate(329.42 515)">Phase: First Course<tspan font-size="19" x="0" y="23">Doses Delivered:</tspan><tspan font-size="19" x="18.3333" y="45">[0]  Prostate</tspan>,<tspan font-size="19" x="119.56" y="45">5000cGy</tspan><tspan font-size="19" x="18.3333" y="68">[1]  SV, </tspan>5000 <tspan font-size="19" x="116.027" y="68">cGy</tspan><tspan font-size="19" x="18.3333" y="90">[2</tspan><tspan font-size="19" x="33.5" y="90">]</tspan><tspan font-size="19" x="47.5" y="90">Pelvic Nodes, </tspan><tspan font-size="19" x="152.46" y="90">4500 </tspan><tspan font-size="19" x="194.627" y="90">cGy</tspan><tspan font-size="19" x="0" y="112">Fractions Delivered: 25</tspan><tspan font-size="19" x="0" y="135">Modality:</tspan><tspan font-size="19" x="77.3333" y="135">Photon</tspan><tspan font-size="19" x="132.487" y="135">s</tspan><tspan font-size="19" x="0" y="157">Technique: VMAT</tspan></text><rect x="457.5" y="57.5001" width="575" height="291" stroke="#41719C" stroke-width="1.33333" stroke-miterlimit="8" fill="#CC9900"/><text fill="#FFFFFF" font-family="Calibri,Calibri_MSFontService,sans-serif" font-weight="400" font-size="19" transform="translate(475.717 85)">Modalities: Photons, Electrons<tspan font-size="19" x="0" y="23">Techniques: VMAT, 3D</tspan><tspan font-size="19" x="0" y="45">Doses Delivered:</tspan><tspan font-size="19" x="8.33334" y="68">[0] Prostate</tspan><tspan font-size="19" x="96.56" y="68">,</tspan><tspan font-size="19" x="105.393" y="68">7000 </tspan><tspan font-size="19" x="147.56" y="68">cGy</tspan>,<tspan font-size="19" x="182.953" y="68">35 fractions</tspan><tspan font-size="19" x="8.33334" y="90">[1] Seminal Vesicals (SV),  </tspan><tspan font-size="19" x="204.293" y="90">6000 </tspan><tspan font-size="19" x="246.46" y="90">cGy</tspan><tspan font-size="19" x="273.02" y="90">,</tspan><tspan font-size="19" x="281.853" y="90">30 fractions</tspan><tspan font-size="19" x="8.33334" y="112">[2] Pelvic </tspan>Nodes: 4500 <tspan font-size="19" x="180.793" y="112">cGy</tspan>,<tspan font-size="19" x="216.187" y="112">25 fractions</tspan><tspan font-size="19" x="0" y="135">Number</tspan><tspan font-size="19" x="66.5" y="135">of</tspan><tspan font-size="19" x="86.1667" y="135">Sessions: 35</tspan><tspan font-size="19" x="0" y="157">Period: June 1, 2020 to July 19, 2020</tspan><tspan font-size="19" x="0" y="180">Status: Completed</tspan><tspan font-size="19" x="0" y="202">Treatment</tspan><tspan font-size="19" x="83.08" y="202">Intent:</tspan><tspan font-size="19" x="138.033" y="202">Curative</tspan><tspan font-size="19" x="0" y="224">TerminationReason: Treatment Completed</tspan><tspan font-size="19" x="0" y="247">ReasonCode: ICD</tspan>-<tspan font-size="19" x="135.173" y="247">10</tspan>-<tspan font-size="19" x="159.84" y="247">CM #C61 "Malignant neoplasm of prostate"</tspan></text><path d="M0.556514-1.21164 297.364 135.114 296.251 137.538-0.556514 1.21164ZM297.265 132.134 302.865 139.108 293.926 139.404Z" transform="matrix(1 0 0 -1 442.5 487.608)"/><rect x="614.5" y="487.5" width="263" height="200" stroke="#41719C" stroke-width="1.33333" stroke-miterlimit="8" fill="#002060"/><text fill="#FFFFFF" font-family="Calibri,Calibri_MSFontService,sans-serif" font-weight="400" font-size="19" transform="translate(633.588 515)">Phase: <tspan font-size="19" x="54.3334" y="0">Boost 1</tspan><tspan font-size="19" x="0" y="23">Doses Delivered:</tspan><tspan font-size="19" x="16.6667" y="45">[0]  Prostate, 1000 cGy</tspan><tspan font-size="19" x="16.6667" y="68">[1]  SV</tspan><tspan font-size="19" x="63.36" y="68">,</tspan><tspan font-size="19" x="72.1934" y="68">1000 </tspan><tspan font-size="19" x="114.36" y="68">cGy</tspan><tspan font-size="19" x="0" y="90">Fractions Delivered: 5</tspan><tspan font-size="19" x="0" y="112">Modality: Photons</tspan><tspan font-size="19" x="0" y="135">Technique: VMAT</tspan></text><rect x="916.5" y="488.5" width="263" height="200" stroke="#41719C" stroke-width="1.33333" stroke-miterlimit="8" fill="#002060"/><text fill="#FFFFFF" font-family="Calibri,Calibri_MSFontService,sans-serif" font-weight="400" font-size="19" transform="translate(935.678 515)">Phase: <tspan font-size="19" x="54.3333" y="0">Boost 2</tspan><tspan font-size="19" x="0" y="23">Doses Delivered:</tspan><tspan font-size="19" x="18.3333" y="45">[0]  Prostate, 1000 cGy</tspan><tspan font-size="19" x="0" y="68">Fractions Delivered: 5</tspan><tspan font-size="19" x="0" y="90">Modality: Electrons</tspan><tspan font-size="19" x="0" y="112">Technique: 3D</tspan></text><path d="M744.47 487.62 743.229 355.179 745.896 355.154 747.136 487.595ZM740.575 356.537 744.5 348.5 748.575 356.462Z"/><path d="M1047.33 489.637 749.996 352.503 751.113 350.081 1048.45 487.216ZM750.089 355.483 744.5 348.5 753.44 348.218Z"/><path d="M0 0 1125.86 3.24042" stroke="#5B9BD5" stroke-width="4" stroke-miterlimit="8" fill="none" fill-rule="evenodd" transform="matrix(1 0 0 -1 119 415.24)"/><text font-family="Calibri,Calibri_MSFontService,sans-serif" font-weight="400" font-size="24" transform="translate(106.505 595)">Treatment Phases<tspan font-size="24" x="495.961" y="-551">Radiotherapy Course </tspan>Summary<tspan font-size="24" x="732.26" y="-220">partOf</tspan></text></g></svg>